<svg xmlns="http://www.w3.org/2000/svg" viewBox="0 0 508 508"><defs><style>.cls-1{fill:#aebfff;}.cls-2{isolation:isolate;}.cls-3{fill:#6176ba;}</style></defs><g id="Layer_2" data-name="Layer 2"><g id="Layer_1-2" data-name="Layer 1"><g id="Layer_1-3" data-name="Layer 1"><circle class="cls-1" cx="254" cy="254" r="254"/></g><g id="Layer_2-2" data-name="Layer 2"><g class="cls-2"><path class="cls-3" d="M86.75,199h17.78V281.5h40v14.89H86.75Z"/><path class="cls-3" d="M238.78,246.68c0,32.66-19.79,51.3-46.67,51.3-27.46,0-44.8-21-44.8-49.57,0-29.92,18.78-51,46.24-51C222,197.4,238.78,218.93,238.78,246.68Zm-72.69,1.44c0,19.8,10,35.55,27,35.55S220,267.77,220,247.4c0-18.36-9.11-35.7-26.88-35.7S166.09,228,166.09,248.12Z"/><path class="cls-3" d="M332.14,291.91a96.51,96.51,0,0,1-31.36,5.49c-16.47,0-28.9-4.19-38.15-13-8.67-8.23-13.73-21.09-13.58-35.84,0-30.78,22-50.58,54.19-50.58,12,0,21.39,2.46,25.87,4.63l-3.9,14.31c-5.35-2.32-11.85-4.2-22.11-4.2-20.81,0-35.41,12.29-35.41,35,0,22.11,13.58,35.26,33.82,35.26,6.35,0,11.12-.87,13.44-2V256.65h-17.2v-14h34.39Z"/><path class="cls-3" d="M436.77,246.68c0,32.66-19.8,51.3-46.68,51.3-27.46,0-44.8-21-44.8-49.57,0-29.92,18.79-51,46.25-51C420,197.4,436.77,218.93,436.77,246.68Zm-72.69,1.44c0,19.8,10,35.55,27,35.55S418,267.77,418,247.4c0-18.36-9.1-35.7-26.88-35.7S364.08,228,364.08,248.12Z"/></g></g></g></g></svg>